<svg width="22" height="22" viewBox="0 0 22 22" fill="none" xmlns="http://www.w3.org/2000/svg">
<g clip-path="url(#clip0_408_212)">
<path d="M20.1666 4.58342H15.5833V1.83341C15.5833 1.5903 15.4867 1.35714 15.3148 1.18523C15.1429 1.01333 14.9097 0.916748 14.6666 0.916748H7.33329C7.09018 0.916748 6.85702 1.01333 6.68511 1.18523C6.5132 1.35714 6.41663 1.5903 6.41663 1.83341V4.58342H1.83329C1.59018 4.58342 1.35702 4.67999 1.18511 4.8519C1.0132 5.02381 0.916626 5.25697 0.916626 5.50008C0.916626 5.7432 1.0132 5.97635 1.18511 6.14826C1.35702 6.32017 1.59018 6.41675 1.83329 6.41675H2.85721L4.59063 20.2804C4.61833 20.5021 4.72601 20.706 4.89346 20.8539C5.0609 21.0017 5.27657 21.0834 5.49996 21.0834H16.5C16.7233 21.0834 16.939 21.0017 17.1065 20.8539C17.2739 20.706 17.3816 20.5021 17.4093 20.2804L19.1427 6.41675H20.1666C20.4097 6.41675 20.6429 6.32017 20.8148 6.14826C20.9867 5.97635 21.0833 5.7432 21.0833 5.50008C21.0833 5.25697 20.9867 5.02381 20.8148 4.8519C20.6429 4.67999 20.4097 4.58342 20.1666 4.58342ZM8.24996 2.75008H13.75V4.58342H8.24996V2.75008ZM15.6905 19.2501H6.30938L4.70521 6.41675H17.2947L15.6905 19.2501Z" fill="#992C2C"/>
</g>
<defs>
<clipPath id="clip0_408_212">
<rect width="22" height="22" fill="white"/>
</clipPath>
</defs>
</svg>
