<svg width="29" height="25" viewBox="0 0 29 25" fill="none" xmlns="http://www.w3.org/2000/svg">
<path d="M17.7623 23.2398C20.8422 20.8567 25.2867 17.1258 27.1388 14.142C28.5247 11.9128 28.9756 9.15102 28.3728 6.58317C27.0849 0.733849 19.9533 -1.65632 15.511 2.26354C15.2611 2.48254 15.0308 2.72533 14.7944 2.97462V2.97462C14.6339 3.14398 14.3663 3.14396 14.2058 2.97461V2.97461C13.9694 2.72533 13.7391 2.48254 13.4892 2.26354C9.04697 -1.65632 1.91533 0.733849 0.627446 6.58317C0.0246656 9.15102 0.475531 11.9128 1.86143 14.142C3.71353 17.1258 8.15804 20.8567 11.2379 23.2398V23.2398C13.1496 24.7193 15.8507 24.7193 17.7623 23.2398V23.2398Z" fill="white"/>
</svg>
