<svg width="30" height="30" viewBox="0 0 30 30" fill="none" xmlns="http://www.w3.org/2000/svg">
<path d="M0 26V18.7273V12.2703C0 11.0126 0.591497 9.82821 1.5969 9.07263L12.5969 0.805966C14.0204 -0.263804 15.9796 -0.263806 17.4031 0.805963L28.4031 9.07263C29.4085 9.82821 30 11.0126 30 12.2703V26C30 28.2091 28.2091 30 26 30H22C19.7909 30 18 28.2091 18 26V23.1364C18 21.4795 16.6569 20.1364 15 20.1364C13.3431 20.1364 12 21.4795 12 23.1364V26C12 28.2091 10.2091 30 8 30H4C1.79086 30 0 28.2091 0 26Z" fill="#F04591"/>
</svg>
