<svg width="199" height="78" viewBox="0 0 199 78" fill="none" xmlns="http://www.w3.org/2000/svg">
<path d="M4.728 72.496C3.66133 72.0693 3.02133 71.2587 2.808 70.064C2.63733 68.912 1.912 67.9733 0.632 67.248C0.973334 65.072 1.35733 62.8747 1.784 60.656C2.21067 58.4373 2.744 55.92 3.384 53.104C4.06667 50.2453 4.89867 46.9387 5.88 43.184C6.904 39.3867 8.184 34.8 9.72 29.424C8.312 29.424 7.20267 29.4453 6.392 29.488C5.58133 29.5307 4.792 29.616 4.024 29.744C3.85333 29.5733 3.704 29.3387 3.576 29.04C3.49067 28.7413 3.448 28.464 3.448 28.208C3.87467 28.0373 4.74933 27.824 6.072 27.568C7.39467 27.2693 8.84533 27.0133 10.424 26.8C11.448 23.5573 12.6213 20.656 13.944 18.096C15.2667 15.4933 16.696 13.2747 18.232 11.44C19.768 9.60533 21.3893 8.19733 23.096 7.216C24.8027 6.23467 26.5307 5.744 28.28 5.744C28.792 5.744 29.2827 5.78667 29.752 5.872C30.2213 5.91466 30.584 5.936 30.84 5.936C31.224 5.63733 31.736 5.38133 32.376 5.168C33.016 4.912 33.5707 4.784 34.04 4.784C34.552 4.784 35.2133 5.06133 36.024 5.616C35.6827 6.21333 35.32 7.024 34.936 8.048C34.552 9.072 34.232 10.0747 33.976 11.056C32.9093 14.2133 31.7787 16.2613 30.584 17.2C30.1147 17.2 29.8587 16.5813 29.816 15.344C29.7733 14.448 29.6453 13.5733 29.432 12.72C29.2613 12.336 29.1333 11.9947 29.048 11.696C29.0053 11.3973 28.984 11.0133 28.984 10.544C28.984 10.288 29.0053 9.98933 29.048 9.648C29.0907 9.264 29.176 8.64533 29.304 7.792C28.5787 7.792 27.768 8.24 26.872 9.136C26.0187 10.032 25.1013 11.312 24.12 12.976C23.1813 14.5973 22.2213 16.5387 21.24 18.8C20.2587 21.0613 19.32 23.5573 18.424 26.288L23.8 26.096C24.0133 26.3093 24.184 26.8 24.312 27.568C24.4827 28.2933 24.5893 29.0613 24.632 29.872L17.592 29.488C15.9707 34.3093 14.456 38.9173 13.048 43.312C11.64 47.7067 10.3813 51.76 9.272 55.472C8.16267 59.184 7.20267 62.4907 6.392 65.392C5.624 68.336 5.06933 70.704 4.728 72.496ZM21.547 52.72C21.7603 51.4827 22.123 49.8613 22.635 47.856C23.1897 45.808 23.8297 43.6533 24.555 41.392C25.2803 39.088 26.0483 36.784 26.859 34.48C27.6697 32.176 28.459 30.1067 29.227 28.272C29.7817 26.9493 30.2723 25.9253 30.699 25.2C31.1257 24.432 31.595 23.792 32.107 23.28C32.7043 23.3653 33.323 23.5147 33.963 23.728C34.603 23.9413 35.2217 24.1973 35.819 24.496C36.4163 24.7947 36.9497 25.1147 37.419 25.456C37.8883 25.7547 38.251 26.0533 38.507 26.352C37.355 27.7173 36.331 29.2747 35.435 31.024C34.5817 32.7733 33.707 35.0133 32.811 37.744C35.115 35.696 37.1417 33.7333 38.891 31.856C40.683 29.9787 42.347 27.888 43.883 25.584C44.139 25.3707 44.587 25.264 45.227 25.264C45.8243 25.264 46.4003 25.3707 46.955 25.584C47.5097 25.7547 47.8937 26.0107 48.107 26.352C47.339 28.4 46.955 30.4267 46.955 32.432C46.955 34.3093 47.2323 35.7173 47.787 36.656C47.7443 36.912 47.4457 37.4027 46.891 38.128C46.379 38.8533 45.803 39.536 45.163 40.176C44.011 39.5787 42.987 38.768 42.091 37.744C41.195 36.6773 40.5337 35.5253 40.107 34.288C38.1017 35.696 36.395 37.0827 34.987 38.448C33.579 39.7707 32.363 41.264 31.339 42.928C30.3577 44.5493 29.5043 46.4267 28.779 48.56C28.0963 50.6933 27.435 53.232 26.795 56.176C26.411 56.1333 25.9417 55.984 25.387 55.728C24.875 55.5147 24.3417 55.2373 23.787 54.896C23.275 54.5547 22.8057 54.192 22.379 53.808C21.9523 53.424 21.675 53.0613 21.547 52.72ZM48.9595 49.712C48.9595 49.328 48.9808 48.8587 49.0235 48.304C49.1088 47.7067 49.2368 46.9387 49.4075 46C49.5782 45.0187 49.7915 43.8453 50.0475 42.48C50.3462 41.1147 50.7088 39.472 51.1355 37.552C51.2208 37.1253 51.4128 36.4427 51.7115 35.504C52.0102 34.5653 52.3942 33.584 52.8635 32.56C53.3755 31.4933 53.9728 30.4693 54.6555 29.488C55.3808 28.5067 56.2342 27.7813 57.2155 27.312C57.9408 27.4827 58.9008 27.9307 60.0955 28.656C61.2902 29.3387 62.3142 30.2987 63.1675 31.536C62.1862 32.6453 61.3542 33.7547 60.6715 34.864C60.0315 35.9733 59.4342 37.1253 58.8795 38.32C58.3675 39.5147 57.8768 40.752 57.4075 42.032C56.9808 43.312 56.4902 44.656 55.9355 46.064C55.4662 47.2587 55.0395 48.496 54.6555 49.776C54.2715 51.0133 54.0582 52.1013 54.0155 53.04C54.0155 53.808 53.9942 54.3413 53.9515 54.64C53.9515 54.9813 53.8448 55.152 53.6315 55.152C53.4608 55.152 53.1195 55.0453 52.6075 54.832C52.0955 54.6187 51.5622 54.2987 51.0075 53.872C50.4955 53.4027 50.0262 52.8267 49.5995 52.144C49.1728 51.4613 48.9595 50.6507 48.9595 49.712ZM61.1835 21.936C61.1835 21.68 61.2475 21.296 61.3755 20.784C61.1622 20.5707 60.9702 20.2507 60.7995 19.824C60.6715 19.3973 60.6075 19.0133 60.6075 18.672C60.6075 18.288 60.6502 17.776 60.7355 17.136C60.8635 16.4533 61.0128 15.728 61.1835 14.96C61.3542 14.192 61.5675 13.4027 61.8235 12.592C62.0795 11.7387 62.3355 10.9707 62.5915 10.288C63.1035 10.288 63.7222 10.4373 64.4475 10.736C65.2155 10.992 65.9835 11.3547 66.7515 11.824C67.5195 12.2507 68.2235 12.7413 68.8635 13.296C69.5035 13.808 69.9942 14.2987 70.3355 14.768C69.8662 15.2373 69.2475 15.8987 68.4795 16.752C67.7115 17.5627 66.9648 18.4373 66.2395 19.376C65.5142 20.272 64.8528 21.1253 64.2555 21.936C63.6582 22.7467 63.2742 23.3227 63.1035 23.664C62.5915 23.5787 62.1435 23.3653 61.7595 23.024C61.3755 22.64 61.1835 22.2773 61.1835 21.936ZM86.9325 27.504C86.7618 30.1493 86.2925 32.432 85.5245 34.352C84.7565 36.2293 83.6472 37.8933 82.1965 39.344C80.7885 40.752 79.0605 42.032 77.0125 43.184C74.9645 44.336 72.5752 45.4453 69.8445 46.512C69.8445 46.768 69.8232 47.0453 69.7805 47.344C69.7805 47.6 69.7805 47.8773 69.7805 48.176C69.7805 48.7307 69.8232 49.3067 69.9085 49.904C69.9938 50.5013 70.1432 51.056 70.3565 51.568C70.5698 52.08 70.8685 52.5067 71.2525 52.848C71.6365 53.1467 72.1272 53.296 72.7245 53.296C73.8765 53.296 75.0072 53.04 76.1165 52.528C77.2258 52.016 78.2712 51.3973 79.2525 50.672C80.2765 49.904 81.2152 49.0933 82.0685 48.24C82.9645 47.344 83.7538 46.5333 84.4365 45.808C84.8632 46.192 85.2258 46.5547 85.5245 46.896C83.6045 49.456 81.4925 51.5893 79.1885 53.296C76.9272 54.96 74.7725 56.0267 72.7245 56.496C69.7805 56.1547 67.4765 55.088 65.8125 53.296C64.1912 51.4613 63.3805 49.264 63.3805 46.704C63.3805 44.9547 63.6152 43.184 64.0845 41.392C64.5965 39.5573 65.2792 37.808 66.1325 36.144C67.0285 34.4373 68.0525 32.8373 69.2045 31.344C70.3992 29.8507 71.6578 28.5493 72.9805 27.44C74.3458 26.3307 75.7325 25.456 77.1405 24.816C78.5912 24.176 80.0205 23.856 81.4285 23.856C83.3912 24.112 85.2258 25.328 86.9325 27.504ZM82.5165 29.616C81.3645 29.7867 80.1698 30.256 78.9325 31.024C77.6952 31.792 76.5218 32.816 75.4125 34.096C74.3458 35.376 73.3645 36.8693 72.4685 38.576C71.5725 40.2827 70.8685 42.1173 70.3565 44.08C73.7698 42.3733 76.6072 40.2827 78.8685 37.808C81.1298 35.2907 82.3458 32.56 82.5165 29.616ZM100.264 22.96C101.373 23.3013 102.418 24.0693 103.4 25.264C104.381 26.416 105.106 27.696 105.576 29.104C105.106 30.256 104.381 31.6427 103.4 33.264C102.418 34.8853 101.437 36.5493 100.456 38.256C99.4742 39.92 98.5782 41.52 97.7675 43.056C96.9995 44.5493 96.5515 45.7867 96.4235 46.768C97.1062 46.0427 97.8528 45.2107 98.6635 44.272C99.5168 43.2907 100.328 42.3307 101.096 41.392C101.906 40.4107 102.653 39.536 103.336 38.768C104.018 37.9573 104.552 37.36 104.936 36.976C105.746 36.1227 106.706 35.1413 107.816 34.032C108.925 32.88 110.077 31.8133 111.272 30.832C112.509 29.808 113.746 28.9547 114.984 28.272C116.221 27.5467 117.352 27.184 118.376 27.184C119.485 27.184 120.402 27.568 121.128 28.336C121.896 29.0613 122.493 29.8293 122.92 30.64C122.92 30.7253 122.749 30.8533 122.408 31.024C122.109 31.152 121.661 31.5573 121.064 32.24C120.466 33.008 119.784 34.0747 119.016 35.44C118.29 36.7627 117.565 38.2133 116.84 39.792C116.157 41.328 115.581 42.9067 115.112 44.528C114.642 46.1493 114.408 47.6213 114.408 48.944C114.408 50.0107 114.536 50.6933 114.792 50.992C115.09 51.2907 115.496 51.44 116.007 51.44C116.477 51.44 116.968 51.3333 117.479 51.12C117.992 50.9067 118.397 50.8 118.696 50.8C118.866 50.8853 118.994 51.0773 119.08 51.376C119.208 51.632 119.272 51.8667 119.272 52.08C118.93 52.3787 118.525 52.6773 118.056 52.976C117.586 53.2747 117.096 53.552 116.583 53.808C116.072 54.064 115.56 54.2773 115.048 54.448C114.578 54.6187 114.152 54.704 113.768 54.704C112.53 54.704 111.506 54.512 110.696 54.128C109.928 53.7867 109.309 53.3173 108.84 52.72C108.413 52.1227 108.114 51.4187 107.944 50.608C107.773 49.7547 107.688 48.8587 107.688 47.92C107.688 47.408 107.73 46.832 107.816 46.192C107.901 45.552 108.072 44.8053 108.328 43.952C108.584 43.056 108.946 42.0107 109.416 40.816C109.885 39.5787 110.482 38.1067 111.208 36.4C111.122 36.4 110.546 36.6987 109.48 37.296C108.413 37.8933 107.261 38.8107 106.024 40.048C104.018 41.968 102.205 43.8667 100.583 45.744C99.0048 47.6213 97.3835 49.712 95.7195 52.016C94.7808 53.3387 93.9488 54.448 93.2235 55.344C92.5408 56.2827 91.9435 56.9013 91.4315 57.2C90.5355 56.688 89.8742 55.9627 89.4475 55.024C89.0208 54.128 88.7008 53.1893 88.4875 52.208C88.4875 51.3973 88.5942 50.3733 88.8075 49.136C89.0635 47.8987 89.3835 46.5333 89.7675 45.04C90.1942 43.504 90.7062 41.904 91.3035 40.24C91.9008 38.576 92.5622 36.912 93.2875 35.248C94.9088 31.4933 96.3808 28.5493 97.7035 26.416C99.0688 24.2827 99.9222 23.1307 100.264 22.96ZM138.41 24.112C139.263 24.112 140.245 24.368 141.354 24.88C142.463 25.392 143.445 26.0533 144.298 26.864C144.085 25.1573 143.807 23.5573 143.466 22.064C143.167 20.528 142.698 18.9493 142.058 17.328C141.461 15.7067 140.65 13.936 139.626 12.016C138.602 10.096 137.322 7.89866 135.786 5.424C135.914 5.04 136.191 4.592 136.618 4.08C137.087 3.568 137.599 3.09866 138.154 2.672C138.751 2.20266 139.349 1.79733 139.946 1.456C140.586 1.11466 141.183 0.90133 141.738 0.815998C142.933 2.13867 144.063 3.80267 145.13 5.808C146.197 7.77067 147.135 9.904 147.946 12.208C148.757 14.4693 149.375 16.816 149.802 19.248C150.271 21.68 150.506 24.0053 150.506 26.224C150.506 28.4427 150.25 30.7253 149.738 33.072C149.269 35.4187 148.586 37.7227 147.69 39.984C146.837 42.2027 145.834 44.3147 144.682 46.32C143.53 48.3253 142.271 50.1173 140.906 51.696C139.583 53.2747 138.197 54.5547 136.746 55.536C135.295 56.56 133.845 57.2 132.394 57.456C129.45 57.1147 127.189 56.1547 125.61 54.576C124.074 53.04 123.306 50.9067 123.306 48.176C123.306 46.7253 123.519 45.1467 123.946 43.44C124.415 41.7333 125.013 40.048 125.738 38.384C126.506 36.6773 127.381 35.0347 128.362 33.456C129.386 31.8347 130.453 30.384 131.562 29.104C132.714 27.824 133.866 26.736 135.018 25.84C136.17 24.944 137.301 24.368 138.41 24.112ZM131.882 54.896C133.375 54.384 134.869 53.2533 136.362 51.504C137.855 49.7547 139.199 47.7067 140.394 45.36C141.589 42.9707 142.549 40.432 143.274 37.744C144.042 35.0133 144.426 32.3893 144.426 29.872C144.426 29.1467 144.426 28.6987 144.426 28.528C144.426 28.3573 144.405 28.1867 144.362 28.016C143.338 28.4427 142.25 29.168 141.098 30.192C139.946 31.216 138.794 32.4107 137.642 33.776C136.49 35.0987 135.402 36.5493 134.378 38.128C133.354 39.7067 132.437 41.2853 131.626 42.864C130.815 44.4427 130.175 45.9573 129.706 47.408C129.237 48.8587 129.002 50.1387 129.002 51.248C129.002 53.3813 129.962 54.5973 131.882 54.896ZM152.082 49.904C152.082 48.0267 152.53 45.4027 153.426 42.032C154.322 38.6187 155.58 34.6507 157.202 30.128C159.847 22.9173 162.322 16.9227 164.626 12.144C166.972 7.32266 169.255 3.568 171.474 0.879997C171.986 0.965329 172.604 1.17866 173.33 1.52C174.098 1.86133 174.844 2.24533 175.57 2.672C176.295 3.056 176.935 3.46133 177.49 3.888C178.087 4.31466 178.471 4.656 178.642 4.912C175.314 8.83733 172.391 13.0613 169.874 17.584C167.356 22.1067 165.052 27.2907 162.962 33.136C161.17 38.1707 159.804 42.7147 158.866 46.768C157.927 50.7787 157.458 54.128 157.458 56.816C157.458 57.5413 157.458 57.9893 157.458 58.16C157.458 58.3307 157.479 58.5013 157.522 58.672C156.924 58.5867 156.412 58.4373 155.986 58.224C155.559 58.0107 155.282 57.7547 155.154 57.456C155.068 57.2427 154.834 56.9227 154.45 56.496C154.066 56.112 153.724 55.8133 153.426 55.6C153.042 55.344 152.722 54.6827 152.466 53.616C152.21 52.5067 152.082 51.2693 152.082 49.904ZM191.335 44.08C190.353 47.1947 189.372 50.032 188.391 52.592C187.409 55.152 186.364 57.4987 185.255 59.632C184.145 61.808 182.951 63.792 181.671 65.584C180.391 67.4187 178.983 69.1467 177.447 70.768C175.484 72.816 173.457 74.3733 171.367 75.44C169.276 76.5493 167.185 77.104 165.095 77.104C164.028 77.104 162.961 76.976 161.895 76.72C160.87 76.5067 159.91 76.1867 159.014 75.76C158.076 75.376 157.265 74.9067 156.582 74.352C155.857 73.84 155.345 73.2853 155.046 72.688C155.046 72.176 155.345 71.728 155.942 71.344C156.454 71.8133 156.881 72.176 157.222 72.432C157.564 72.688 157.905 72.9013 158.246 73.072C158.545 73.2427 158.886 73.3493 159.27 73.392C159.612 73.4347 160.017 73.456 160.486 73.456C162.919 73.456 165.287 72.7307 167.591 71.28C169.937 69.872 172.135 67.8453 174.183 65.2C176.273 62.5973 178.172 59.4187 179.878 55.664C181.585 51.952 183.036 47.792 184.231 43.184C183.676 44.0373 182.993 45.0827 182.183 46.32C181.372 47.5573 180.476 48.7947 179.495 50.032C178.513 51.2267 177.489 52.3147 176.423 53.296C175.399 54.2773 174.396 54.9387 173.415 55.28C172.732 55.2373 172.007 55.088 171.239 54.832C170.513 54.6187 169.809 54.2987 169.127 53.872C168.487 53.4453 167.911 52.9333 167.399 52.336C166.887 51.7387 166.545 51.056 166.375 50.288C166.375 49.0507 166.417 48.0693 166.503 47.344C166.588 46.576 166.737 45.744 166.951 44.848C167.335 43.2267 167.889 41.392 168.615 39.344C169.383 37.296 170.257 35.2907 171.239 33.328C172.263 31.3227 173.372 29.4667 174.567 27.76C175.804 26.0107 177.084 24.6453 178.407 23.664C178.748 23.664 179.175 23.7067 179.687 23.792C180.199 23.8347 180.732 23.9413 181.287 24.112C181.841 24.2827 182.375 24.496 182.887 24.752C183.399 24.9653 183.847 25.264 184.231 25.648C183.761 26.0747 182.737 27.504 181.159 29.936C179.58 32.368 177.831 35.8667 175.911 40.432C175.697 40.9013 175.441 41.584 175.143 42.48C174.844 43.376 174.545 44.3147 174.247 45.296C173.991 46.2773 173.756 47.2373 173.543 48.176C173.329 49.1147 173.223 49.8613 173.223 50.416C173.223 50.7573 173.265 51.0133 173.351 51.184C173.479 51.3547 173.585 51.4827 173.671 51.568C174.439 51.44 175.463 50.8213 176.743 49.712C178.023 48.56 179.473 46.7893 181.095 44.4C182.119 42.864 183.057 41.3493 183.911 39.856C184.764 38.32 185.596 36.784 186.407 35.248C187.26 33.712 188.135 32.1333 189.031 30.512C189.927 28.8907 190.887 27.2267 191.911 25.52C192.465 25.52 193.063 25.584 193.703 25.712C194.343 25.84 194.961 26.0107 195.559 26.224C196.156 26.3947 196.668 26.608 197.095 26.864C197.564 27.0773 197.905 27.312 198.119 27.568C196.796 30.384 195.559 33.136 194.407 35.824C193.255 38.512 192.231 41.264 191.335 44.08Z" fill="white"/>
</svg>
