<svg width="32" height="30" viewBox="0 0 32 30" fill="none" xmlns="http://www.w3.org/2000/svg">
<path d="M19.4621 28.5655C22.7306 25.6447 27.4474 21.0719 29.413 17.4148C30.8837 14.6826 31.3622 11.2976 30.7225 8.15035C29.3557 0.981118 21.7872 -1.9484 17.0728 2.85599C16.8077 3.12441 16.5632 3.42197 16.3124 3.72752V3.72752C16.15 3.92538 15.8501 3.92537 15.6877 3.72751V3.72751C15.4368 3.42197 15.1924 3.12441 14.9272 2.85599C10.2128 -1.9484 2.64428 0.981118 1.2775 8.15035C0.637791 11.2976 1.11628 14.6826 2.58707 17.4148C4.55263 21.0719 9.26941 25.6447 12.5379 28.5655V28.5655C14.4993 30.3187 17.5007 30.3187 19.4621 28.5655V28.5655Z" fill="#F04591"/>
</svg>
