<svg width="30" height="31" viewBox="0 0 30 31" fill="none" xmlns="http://www.w3.org/2000/svg">
<path d="M11 15.5H11.0125ZM16 15.5H16.0125ZM21 15.5H21.0125ZM27.2549 15.5C27.2549 21.7133 22.2181 26.75 16.0049 26.75C13.4594 26.75 4.75578 26.75 4.75578 26.75C4.75578 26.75 6.70477 22.0701 5.92477 20.501C5.17595 18.9945 4.75488 17.2965 4.75488 15.5C4.75488 9.2868 9.79167 4.25 16.0049 4.25C22.2181 4.25 27.2549 9.2868 27.2549 15.5Z" fill="#F04591"/>
<path d="M11 15.5H11.0125M16 15.5H16.0125M21 15.5H21.0125M27.2549 15.5C27.2549 21.7133 22.2181 26.75 16.0049 26.75C13.4594 26.75 4.75578 26.75 4.75578 26.75C4.75578 26.75 6.70477 22.0701 5.92477 20.501C5.17595 18.9945 4.75488 17.2965 4.75488 15.5C4.75488 9.2868 9.79167 4.25 16.0049 4.25C22.2181 4.25 27.2549 9.2868 27.2549 15.5Z" stroke="#222222" stroke-width="1.8" stroke-linecap="round" stroke-linejoin="round"/>
</svg>
